<svg width="40" height="41" viewBox="0 0 40 41" fill="none" xmlns="http://www.w3.org/2000/svg">
<path d="M18.557 19.5547C19.007 19.5547 19.3715 19.8922 19.3632 20.3047C19.3632 20.7172 19.0078 21.0547 18.557 21.0547C18.1145 21.0547 17.75 20.7172 17.75 20.3047C17.75 19.8922 18.1063 19.5547 18.557 19.5547ZM21.443 19.5547C21.8938 19.5547 22.25 19.8922 22.25 20.3047C22.25 20.7172 21.8938 21.0547 21.443 21.0547C21.0005 21.0547 20.6368 20.7172 20.6368 20.3047C20.6368 19.8922 20.9922 19.5547 21.443 19.5547ZM25.1683 12.8047C26.0405 12.8047 26.75 13.5292 26.75 14.4269V28.5547L25.0917 27.0584L24.158 26.1764L23.1702 25.2389L23.5798 26.6962H14.8318C13.9595 26.6962 13.25 25.9717 13.25 25.0739V14.4269C13.25 13.5292 13.9595 12.8047 14.8318 12.8047H25.1675H25.1683ZM22.1908 23.0894C23.8955 23.0347 24.5518 21.8924 24.5518 21.8924C24.5518 19.3567 23.4403 17.3009 23.4403 17.3009C22.3302 16.4512 21.2727 16.4744 21.2727 16.4744L21.1648 16.6004C22.4765 17.0099 23.0855 17.6009 23.0855 17.6009C22.3693 17.1974 21.58 16.9404 20.7635 16.8449C20.2456 16.7864 19.7224 16.7915 19.2057 16.8599C19.1592 16.8599 19.1202 16.8682 19.0745 16.8757C18.8045 16.8997 18.1482 17.0017 17.3232 17.3722C17.0382 17.5057 16.868 17.6009 16.868 17.6009C16.868 17.6009 17.5085 16.9784 18.8968 16.5689L18.8195 16.4744C18.8195 16.4744 17.7627 16.4512 16.652 17.3017C16.652 17.3017 15.5412 19.3567 15.5412 21.8924C15.5412 21.8924 16.1893 23.0339 17.894 23.0894C17.894 23.0894 18.179 22.7354 18.4115 22.4362C17.4313 22.1362 17.0615 21.5062 17.0615 21.5062C17.0615 21.5062 17.138 21.5617 17.2768 21.6404C17.2843 21.6479 17.2917 21.6562 17.3075 21.6637C17.3307 21.6802 17.354 21.6877 17.3773 21.7034C17.57 21.8137 17.7628 21.8999 17.9398 21.9712C18.2563 22.0972 18.6342 22.2232 19.0745 22.3102C19.734 22.4395 20.4121 22.442 21.0725 22.3177C21.4572 22.249 21.8325 22.1355 22.1908 21.9794C22.4607 21.8767 22.7615 21.7267 23.078 21.5144C23.078 21.5144 22.6925 22.1602 21.6815 22.4519C21.9132 22.7512 22.1915 23.0894 22.1915 23.0894H22.1908Z" fill="black"/>
</svg>
