<svg width="40" height="41" viewBox="0 0 40 41" fill="none" xmlns="http://www.w3.org/2000/svg">
<path d="M27.6212 15.5469C27.0487 15.8001 26.4415 15.9665 25.8197 16.0404C26.475 15.6485 26.9655 15.0316 27.1997 14.3049C26.5847 14.6709 25.9105 14.9274 25.2077 15.0661C24.7357 14.5611 24.11 14.2261 23.428 14.1133C22.7459 14.0005 22.0457 14.1162 21.4362 14.4425C20.8267 14.7687 20.342 15.2871 20.0576 15.9172C19.7731 16.5473 19.7048 17.2537 19.8632 17.9266C18.6161 17.8641 17.396 17.54 16.2822 16.9754C15.1684 16.4107 14.1858 15.6182 13.3982 14.6491C13.1195 15.128 12.973 15.6723 12.9737 16.2264C12.9737 17.3139 13.5272 18.2746 14.3687 18.8371C13.8707 18.8214 13.3837 18.687 12.9482 18.4449V18.4839C12.9484 19.2082 13.199 19.9101 13.6576 20.4707C14.1162 21.0313 14.7546 21.416 15.4645 21.5596C15.0022 21.6849 14.5175 21.7034 14.047 21.6136C14.2471 22.2371 14.6372 22.7823 15.1627 23.173C15.6881 23.5636 16.3226 23.7802 16.9772 23.7924C16.3266 24.3034 15.5816 24.6811 14.7849 24.904C13.9882 25.1269 13.1553 25.1906 12.334 25.0914C13.7678 26.0135 15.4368 26.503 17.1415 26.5014C22.9112 26.5014 26.0665 21.7216 26.0665 17.5764C26.0665 17.4414 26.0627 17.3049 26.0567 17.1714C26.6709 16.7275 27.2009 16.1776 27.622 15.5476L27.6212 15.5469Z" fill="black"/>
</svg>
